PathFileType	4	(X/Y/Z)	s01c0202.trc
DataRate	CameraRate	NumFrames	NumMarkers	Units	OrigDataRate	OrigDataStartFrame	OrigNumFrames
200	200	5	48	mm	200	750	2000
Frame#	Time	racr			lacr			c7			jug			rlel			rdr			llel			ldr			s2			lic			ric			lasi			rasi			rpsi			lpsi			rgt			lgt			rth1			rth2			rth3			rth4			rlfc			rsh1			rsh2			rsh3			rsh4			rlmal			rmmal			rcal			rtoe			rmt5			lth1			lth2			lth4			lth3			llfc			lsh1			lsh2			lsh3			lsh4			llmal			lmmal			lcal			ltoe			lmt5			SBIKE			LBIKE			RBIKE			
		X1	Y1	Z1	X2	Y2	Z2	X3	Y3	Z3	X4	Y4	Z4	X5	Y5	Z5	X6	Y6	Z6	X7	Y7	Z7	X8	Y8	Z8	X9	Y9	Z9	X10	Y10	Z10	X11	Y11	Z11	X12	Y12	Z12	X13	Y13	Z13	X14	Y14	Z14	X15	Y15	Z15	X16	Y16	Z16	X17	Y17	Z17	X18	Y18	Z18	X19	Y19	Z19	X20	Y20	Z20	X21	Y21	Z21	X22	Y22	Z22	X23	Y23	Z23	X24	Y24	Z24	X25	Y25	Z25	X26	Y26	Z26	X27	Y27	Z27	X28	Y28	Z28	X29	Y29	Z29	X30	Y30	Z30	X31	Y31	Z31	X32	Y32	Z32	X33	Y33	Z33	X34	Y34	Z34	X35	Y35	Z35	X36	Y36	Z36	X37	Y37	Z37	X38	Y38	Z38	X39	Y39	Z39	X40	Y40	Z40	X41	Y41	Z41	X42	Y42	Z42	X43	Y43	Z43	X44	Y44	Z44	X45	Y45	Z45	X46	Y46	Z46	X47	Y47	Z47	X48	Y48	Z48	
750	3.7500	478.238861	1260.749023	-51.615150	519.690918	1249.855347	-404.986725	466.206879	1367.363892	-232.698563	458.687378	1199.153931	-233.345688	455.208069	991.791321	50.392933	668.859680	887.506592	-37.100525	492.647552	1014.872375	-570.436096	667.327759	890.289062	-447.565033	-56.435959	1152.463501	-256.849426	113.216293	1169.955933	-428.693817	87.982765	1159.108643	-93.634285	117.976097	1120.667236	-402.774109	121.164436	1117.427612	-124.372437	-30.807142	1191.419800	-205.145828	-31.328665	1194.170166	-310.988159	45.087700	1038.751221	-72.967072	71.188217	1048.222046	-454.744476	120.724358	925.802307	-50.680717	171.713623	860.930298	-56.392509	222.768890	786.953735	-67.010277	217.163483	893.184021	-66.575729	270.409027	682.439087	-86.745270	245.060593	568.175354	-54.263439	242.484177	483.470673	-60.072197	231.464722	395.872467	-72.141663	292.355835	482.215179	-95.089752	207.207031	274.965881	-96.565941	248.923386	289.403015	-170.208389	167.626709	253.831863	-150.508575	430.364746	192.284027	-130.754456	321.407501	175.261124	-63.738297	173.683762	981.910522	-449.197449	263.027832	974.488708	-450.232178	269.250549	1027.217285	-437.725342	346.165161	956.620178	-433.209229	437.689514	883.892456	-405.106506	345.546387	826.230408	-437.855774	284.248047	765.780457	-429.810913	221.547287	708.180786	-417.445282	323.613434	730.159546	-398.934875	131.046570	625.836060	-404.855438	157.413956	610.168640	-321.700562	70.377991	626.122314	-359.637634	265.850555	426.667023	-372.467590	173.564011	483.628448	-436.007233	-223.983139	893.153137	-252.378830	-12.560325	84.673767	-456.102234	-21.579802	80.793015	-56.050335	
751	3.7550	480.431213	1261.444580	-54.083485	519.019348	1251.084229	-407.482819	466.992798	1368.467285	-234.737747	459.421783	1200.533081	-235.552567	456.969025	993.193054	49.578556	669.302551	887.752319	-37.358593	491.661713	1014.621521	-570.773071	666.811035	890.930603	-447.449127	-56.102024	1152.850708	-255.161163	112.598511	1172.613403	-427.997345	89.156357	1159.019287	-93.282013	118.292412	1122.411499	-401.876343	121.868279	1117.578857	-123.524567	-30.391302	1191.575073	-203.197296	-31.090574	1194.843994	-308.916351	44.992462	1038.116699	-72.063011	71.747932	1051.066284	-454.170502	118.598892	924.943237	-49.721153	168.432343	859.102783	-55.107830	218.311127	784.270752	-65.532417	214.540665	890.716675	-65.110428	264.505890	679.225220	-85.498611	238.528534	564.919922	-53.352497	235.838669	480.280914	-59.262814	224.827682	392.705780	-71.538155	285.841248	478.888702	-94.145393	200.780380	272.341217	-96.355385	241.772430	285.887207	-169.786209	161.436478	252.246613	-151.112869	422.428711	184.812546	-131.007812	313.128357	170.275894	-63.909405	174.572205	986.337158	-448.878204	264.171234	980.978760	-449.653809	269.320312	1033.740356	-437.231689	347.804016	964.693298	-432.513763	440.857147	893.447205	-404.925934	349.388123	835.184265	-437.321442	288.745605	773.965820	-429.409485	226.858627	715.505615	-417.166138	328.456116	738.385498	-398.737946	137.754944	631.043579	-404.588959	164.079422	615.510437	-321.382019	76.793739	630.234314	-359.503662	274.745422	433.960846	-372.756561	182.127167	489.471222	-435.776215	-224.023727	893.240967	-252.416641	-12.567845	84.730476	-456.094757	-21.594141	80.822052	-56.042168	
752	3.7600	482.554718	1262.433838	-56.655361	518.327576	1252.070068	-409.893463	467.813110	1369.450195	-236.819702	460.098053	1201.984985	-237.740768	458.458130	994.681702	48.349209	669.735840	888.018616	-37.575237	489.886932	1013.998230	-571.100037	666.339478	891.286133	-447.251648	-55.783646	1153.367920	-253.532150	112.094482	1175.140259	-427.386963	90.505882	1159.133301	-92.946083	118.589294	1124.101929	-401.148407	122.503609	1117.925293	-122.759109	-29.949589	1191.900146	-201.348465	-30.841068	1195.643433	-306.911652	44.897972	1037.712402	-71.185371	72.397987	1053.884033	-453.559784	116.645363	924.441467	-48.714157	165.490036	857.742310	-53.766647	214.211746	782.164001	-64.209053	212.141785	888.544800	-63.549217	258.994843	676.625122	-84.230835	232.244278	562.381165	-52.467667	229.375977	477.671112	-58.548653	218.315750	390.225952	-70.947449	279.420074	476.156158	-92.932106	194.410507	270.111755	-96.668747	234.940857	283.132782	-169.247406	154.831223	251.881271	-150.604172	414.256683	177.656479	-131.205627	304.711975	165.753433	-64.071091	175.333694	990.666382	-448.577972	265.210754	987.116272	-449.088928	269.285614	1039.890137	-436.515869	349.228699	972.316162	-431.720947	443.692078	902.626465	-404.690826	352.868652	843.725830	-436.648102	293.139923	781.518616	-429.270386	232.057007	722.291443	-416.831146	333.369141	746.307068	-398.925751	144.234955	635.547668	-404.253052	170.677689	620.191711	-321.095551	83.199707	633.495361	-359.346252	284.351593	440.741089	-372.609283	190.825150	494.699066	-435.561035	-224.031754	893.274109	-252.332581	-12.587420	84.743088	-456.088623	-21.578699	80.815781	-56.022236	
753	3.7650	483.948181	1263.140503	-60.365650	517.642090	1252.829956	-412.273529	468.707825	1370.253052	-238.940231	460.772858	1203.129883	-239.816269	459.756897	996.295288	47.005505	670.066528	888.264282	-37.743179	488.619049	1013.317871	-571.412231	665.800476	891.624878	-446.965454	-55.481071	1154.110962	-251.994019	111.510811	1177.614502	-426.540100	91.998970	1159.517822	-92.671638	118.878906	1125.757812	-400.308289	123.161293	1118.357544	-122.099632	-29.513929	1192.416626	-199.562988	-30.613834	1196.630005	-304.993896	44.725609	1037.610229	-70.357277	72.841095	1056.841187	-452.975525	114.901024	924.142456	-47.832809	162.766464	856.779724	-52.498119	210.476303	780.478394	-62.671013	209.958527	886.962097	-61.970234	254.022675	674.446533	-82.971413	226.301102	560.411072	-51.604778	223.174561	475.811371	-57.808739	211.813141	388.377472	-70.404572	273.500824	474.102600	-91.775627	188.264252	269.749756	-94.132263	228.495483	281.159515	-168.588348	148.271133	252.799698	-149.692032	405.766266	170.847427	-131.455505	295.954865	161.870697	-64.217270	175.956573	994.856079	-448.286102	265.936493	992.877869	-448.758301	269.167297	1045.805664	-435.916199	350.419647	979.340576	-430.828125	446.082367	911.269775	-404.598480	355.824829	851.746399	-435.809631	297.121155	788.964294	-428.480957	237.051514	728.552917	-416.404327	338.098175	753.576355	-399.311584	150.644653	639.302734	-403.868591	177.183487	624.174133	-320.849274	89.519783	635.961121	-359.075073	294.271393	447.241211	-372.296997	199.741882	499.448700	-435.274078	-224.065094	893.313110	-252.264709	-12.597886	84.783134	-456.080048	-21.588463	80.833603	-56.019466	
754	3.7700	485.978485	1263.970215	-62.941582	516.941345	1253.323364	-414.598907	469.574188	1370.864868	-241.119629	461.489105	1204.132935	-241.752625	460.845245	997.842957	45.603867	670.305115	888.455505	-37.890835	487.420410	1012.572998	-571.629211	665.267273	891.867432	-446.638550	-55.218361	1154.745483	-250.389130	111.096970	1179.817261	-425.607269	93.612366	1160.108276	-92.329918	119.036812	1127.394165	-399.507935	123.720421	1118.822876	-121.580971	-28.867762	1192.998901	-198.095642	-30.130594	1197.549927	-303.543335	44.478756	1037.771973	-69.456062	73.257736	1059.551880	-452.575623	113.340111	924.222656	-46.839043	160.414520	856.212952	-51.051208	207.219742	779.304199	-60.917759	208.018509	885.718323	-60.466881	249.472549	672.952454	-81.731804	220.757660	559.241638	-50.793491	217.141373	474.700867	-57.073105	205.403900	387.293213	-69.821152	267.795898	472.614441	-90.521301	182.817596	267.684265	-96.374840	222.459305	279.968201	-167.848312	140.937561	254.813644	-148.032089	397.000977	164.574371	-131.700760	286.982452	158.708572	-64.369118	176.432953	998.861938	-447.991058	266.438538	998.374084	-448.304688	268.901794	1051.129883	-434.899872	350.344818	986.260681	-431.049683	448.238495	919.280212	-404.570312	358.651337	859.198242	-435.140564	300.903137	795.522461	-427.944061	241.898819	734.110291	-416.089478	342.745758	760.570801	-399.121246	157.025681	642.226868	-403.286682	183.565750	627.421631	-320.650665	95.864159	637.496521	-358.820709	304.477051	453.365021	-372.142853	208.878677	503.636230	-435.030548	-224.119232	893.334351	-252.209885	-12.602163	84.812622	-456.071320	-21.592844	80.841896	-56.012669	
